<svg width="20" height="20" viewBox="0 0 20 20" fill="none" xmlns="http://www.w3.org/2000/svg">
<path d="M5.83325 15C4.91659 15 4.17492 15.75 4.17492 16.6667C4.17492 17.5833 4.91659 18.3333 5.83325 18.3333C6.74992 18.3333 7.49992 17.5833 7.49992 16.6667C7.49992 15.75 6.74992 15 5.83325 15ZM0.833252 1.66667V3.33334H2.49992L5.49992 9.65834L4.37492 11.7C4.24159 11.9333 4.16659 12.2083 4.16659 12.5C4.16659 13.4167 4.91659 14.1667 5.83325 14.1667H15.8333V12.5H6.18325C6.06659 12.5 5.97492 12.4083 5.97492 12.2917L5.99992 12.1917L6.74992 10.8333H12.9583C13.5833 10.8333 14.1333 10.4917 14.4166 9.97501L17.3999 4.56667C17.4666 4.45001 17.4999 4.30834 17.4999 4.16667C17.4999 3.70834 17.1249 3.33334 16.6666 3.33334H4.34159L3.55825 1.66667H0.833252ZM14.1666 15C13.2499 15 12.5083 15.75 12.5083 16.6667C12.5083 17.5833 13.2499 18.3333 14.1666 18.3333C15.0833 18.3333 15.8333 17.5833 15.8333 16.6667C15.8333 15.75 15.0833 15 14.1666 15Z" fill="black"/>
</svg>
